<svg xmlns="http://www.w3.org/2000/svg" xmlns:xlink="http://www.w3.org/1999/xlink" id="Capa_1" width="25" height="25" x="0" y="0" enable-background="new 587.502 587.5 25 25" version="1.1" viewBox="587.502 587.5 25 25" xml:space="preserve"><path fill="#FFF" d="M612.122,610.271l-6.163-6.188c1.585-1.819,2.453-4.107,2.453-6.489c0-5.566-4.69-10.094-10.455-10.094	c-5.765,0-10.455,4.528-10.455,10.094s4.69,10.094,10.455,10.094c2.164,0,4.227-0.63,5.99-1.827l6.21,6.235	c0.26,0.26,0.609,0.404,0.983,0.404c0.354,0,0.69-0.13,0.945-0.367C612.626,611.629,612.644,610.795,612.122,610.271z M597.957,590.133c4.261,0,7.728,3.347,7.728,7.461c0,4.114-3.466,7.461-7.728,7.461s-7.728-3.347-7.728-7.461	C590.23,593.48,593.696,590.133,597.957,590.133z"/></svg>